{
    "accessors" : [
        {
            "bufferView" : 0, 
            "componentType" : 5123, 
            "count" : 10524, 
            "max" : [
                2538
            ], 
            "min" : [
                0
            ], 
            "type" : "SCALAR"
        }, 
        {
            "bufferView" : 1, 
            "componentType" : 5126, 
            "count" : 2539, 
            "max" : [
                0.26916399598121643, 
                0.26974600553512573, 
                0.1943499892950058
            ], 
            "min" : [
                -0.2696250081062317, 
                -0.26904401183128357, 
                -0.1943499892950058
            ], 
            "type" : "VEC3"
        }, 
        {
            "bufferView" : 2, 
            "componentType" : 5126, 
            "count" : 2539, 
            "max" : [
                0.9941099286079407, 
                0.9914243221282959, 
                1.0
            ], 
            "min" : [
                -0.9941099286079407, 
                -0.9914243221282959, 
                -1.0
            ], 
            "type" : "VEC3"
        }, 
        {
            "bufferView" : 3, 
            "componentType" : 5126, 
            "count" : 2539, 
            "max" : [
                0.8976590037345886, 
                0.9900000002235174
            ], 
            "min" : [
                0.02353999949991703, 
                0.0541989803314209
            ], 
            "type" : "VEC2"
        }, 
        {
            "bufferView" : 4, 
            "componentType" : 5123, 
            "count" : 3024, 
            "max" : [
                549
            ], 
            "min" : [
                0
            ], 
            "type" : "SCALAR"
        }, 
        {
            "bufferView" : 5, 
            "componentType" : 5126, 
            "count" : 550, 
            "max" : [
                0.3686090111732483, 
                0.3686079978942871, 
                0.1959269940853119
            ], 
            "min" : [
                -0.3686090111732483, 
                -0.3686079978942871, 
                -0.1959269940853119
            ], 
            "type" : "VEC3"
        }, 
        {
            "bufferView" : 6, 
            "componentType" : 5126, 
            "count" : 550, 
            "max" : [
                0.9915158748626709, 
                0.9915158748626709, 
                0.999969482421875
            ], 
            "min" : [
                -0.9915158748626709, 
                -0.9915158748626709, 
                -0.999969482421875
            ], 
            "type" : "VEC3"
        }, 
        {
            "bufferView" : 7, 
            "componentType" : 5126, 
            "count" : 550, 
            "max" : [
                0.5684139728546143, 
                0.24379700422286987
            ], 
            "min" : [
                0.5064659714698792, 
                0.010000050067901611
            ], 
            "type" : "VEC2"
        }, 
        {
            "bufferView" : 8, 
            "componentType" : 5123, 
            "count" : 4488, 
            "max" : [
                1145
            ], 
            "min" : [
                0
            ], 
            "type" : "SCALAR"
        }, 
        {
            "bufferView" : 9, 
            "componentType" : 5126, 
            "count" : 1146, 
            "max" : [
                2.5782299041748047, 
                1.0891499519348145, 
                0.9015299677848816
            ], 
            "min" : [
                -2.870299816131592, 
                0.5128179788589478, 
                -0.9015299677848816
            ], 
            "type" : "VEC3"
        }, 
        {
            "bufferView" : 10, 
            "componentType" : 5126, 
            "count" : 1146, 
            "max" : [
                0.9787285923957825, 
                0.9799798727035522, 
                0.9618213176727295
            ], 
            "min" : [
                -0.9624622464179993, 
                -0.9991093277931213, 
                -0.9618213176727295
            ], 
            "type" : "VEC3"
        }, 
        {
            "bufferView" : 11, 
            "componentType" : 5126, 
            "count" : 1146, 
            "max" : [
                0.8070889711380005, 
                0.9854867001995444
            ], 
            "min" : [
                0.6343439817428589, 
                0.4210839867591858
            ], 
            "type" : "VEC2"
        }, 
        {
            "bufferView" : 12, 
            "componentType" : 5123, 
            "count" : 156318, 
            "max" : [
                59271
            ], 
            "min" : [
                0
            ], 
            "type" : "SCALAR"
        }, 
        {
            "bufferView" : 13, 
            "componentType" : 5126, 
            "count" : 59272, 
            "max" : [
                2.61368989944458, 
                1.5814099311828613, 
                0.9566969871520996
            ], 
            "min" : [
                -2.929919958114624, 
                0.16079600155353546, 
                -0.9566969871520996
            ], 
            "type" : "VEC3"
        }, 
        {
            "bufferView" : 14, 
            "componentType" : 5126, 
            "count" : 59272, 
            "max" : [
                0.9999881982803345, 
                1.0, 
                1.0
            ], 
            "min" : [
                -0.999969482421875, 
                -1.0, 
                -1.0
            ], 
            "type" : "VEC3"
        }, 
        {
            "bufferView" : 15, 
            "componentType" : 5126, 
            "count" : 59272, 
            "max" : [
                0.9710490107536316, 
                0.9900000002235174
            ], 
            "min" : [
                0.009999999776482582, 
                0.011498987674713135
            ], 
            "type" : "VEC2"
        }
    ], 
    "asset" : {
        "generator" : "Khronos Blender glTF 2.0 exporter", 
        "version" : "2.0"
    }, 
    "bufferViews" : [
        {
            "buffer" : 0, 
            "byteLength" : 21048, 
            "byteOffset" : 0, 
            "target" : 34963
        }, 
        {
            "buffer" : 0, 
            "byteLength" : 30468, 
            "byteOffset" : 21048, 
            "target" : 34962
        }, 
        {
            "buffer" : 0, 
            "byteLength" : 30468, 
            "byteOffset" : 51516, 
            "target" : 34962
        }, 
        {
            "buffer" : 0, 
            "byteLength" : 20312, 
            "byteOffset" : 81984, 
            "target" : 34962
        }, 
        {
            "buffer" : 0, 
            "byteLength" : 6048, 
            "byteOffset" : 102296, 
            "target" : 34963
        }, 
        {
            "buffer" : 0, 
            "byteLength" : 6600, 
            "byteOffset" : 108344, 
            "target" : 34962
        }, 
        {
            "buffer" : 0, 
            "byteLength" : 6600, 
            "byteOffset" : 114944, 
            "target" : 34962
        }, 
        {
            "buffer" : 0, 
            "byteLength" : 4400, 
            "byteOffset" : 121544, 
            "target" : 34962
        }, 
        {
            "buffer" : 0, 
            "byteLength" : 8976, 
            "byteOffset" : 125944, 
            "target" : 34963
        }, 
        {
            "buffer" : 0, 
            "byteLength" : 13752, 
            "byteOffset" : 134920, 
            "target" : 34962
        }, 
        {
            "buffer" : 0, 
            "byteLength" : 13752, 
            "byteOffset" : 148672, 
            "target" : 34962
        }, 
        {
            "buffer" : 0, 
            "byteLength" : 9168, 
            "byteOffset" : 162424, 
            "target" : 34962
        }, 
        {
            "buffer" : 0, 
            "byteLength" : 312636, 
            "byteOffset" : 171592, 
            "target" : 34963
        }, 
        {
            "buffer" : 0, 
            "byteLength" : 711264, 
            "byteOffset" : 484228, 
            "target" : 34962
        }, 
        {
            "buffer" : 0, 
            "byteLength" : 711264, 
            "byteOffset" : 1195492, 
            "target" : 34962
        }, 
        {
            "buffer" : 0, 
            "byteLength" : 474176, 
            "byteOffset" : 1906756, 
            "target" : 34962
        }
    ], 
    "buffers" : [
        {
            "byteLength" : 2380932, 
            "uri" : "fav_v11b_sp.bin"
        }
    ], 
    "cameras" : [
        {
            "name" : "Camera", 
            "perspective" : {
                "aspectRatio" : 1.7777777777777777, 
                "yfov" : 0.5033799372418416, 
                "zfar" : 100.0, 
                "znear" : 0.10000000149011612
            }, 
            "type" : "perspective"
        }
    ], 
    "images" : [
        {
            "uri" : "fav_v11b_sp_ClearLensCover_BaseColor.png"
        }, 
        {
            "uri" : "fav_v11b_sp_Default_OcclusionRoughnessMetallic.png"
        }, 
        {
            "uri" : "fav_v11b_sp_Default_Emissive.png"
        }, 
        {
            "uri" : "fav_v11b_sp_Default_BaseColor.png"
        }, 
        {
            "uri" : "fav_v11b_sp_TireTread_BaseColor.png"
        }, 
        {
            "uri" : "fav_v11b_sp_TireTread_OcclusionRoughnessMetallic.png"
        }, 
        {
            "uri" : "fav_v11b_sp_TireTread_Normal.png"
        }
    ], 
    "materials" : [
        {
            "name" : "ClearLensCover.001", 
            "pbrMetallicRoughness" : {
                "baseColorTexture" : {
                    "index" : 0
                }
            }
        }, 
        {
            "emissiveFactor" : [
                1.0, 
                1.0, 
                1.0
            ], 
            "emissiveTexture" : {
                "index" : 2
            }, 
            "name" : "Default.001", 
            "occlusionTexture" : {
                "index" : 1
            }, 
            "pbrMetallicRoughness" : {
                "baseColorTexture" : {
                    "index" : 3
                }, 
                "metallicRoughnessTexture" : {
                    "index" : 1
                }
            }
        }, 
        {
            "name" : "TireTread.001", 
            "normalTexture" : {
                "index" : 6
            }, 
            "occlusionTexture" : {
                "index" : 5
            }, 
            "pbrMetallicRoughness" : {
                "baseColorTexture" : {
                    "index" : 4
                }, 
                "metallicRoughnessTexture" : {
                    "index" : 5
                }
            }
        }
    ], 
    "meshes" : [
        {
            "name" : "Tire.001", 
            "primitives" : [
                {
                    "attributes" : {
                        "NORMAL" : 2, 
                        "POSITION" : 1, 
                        "TEXCOORD_0" : 3
                    }, 
                    "indices" : 0, 
                    "material" : 1
                }, 
                {
                    "attributes" : {
                        "NORMAL" : 6, 
                        "POSITION" : 5, 
                        "TEXCOORD_0" : 7
                    }, 
                    "indices" : 4, 
                    "material" : 2
                }
            ]
        }, 
        {
            "name" : "ClearLensCover.002", 
            "primitives" : [
                {
                    "attributes" : {
                        "NORMAL" : 10, 
                        "POSITION" : 9, 
                        "TEXCOORD_0" : 11
                    }, 
                    "indices" : 8, 
                    "material" : 0
                }
            ]
        }, 
        {
            "name" : "Body.001", 
            "primitives" : [
                {
                    "attributes" : {
                        "NORMAL" : 14, 
                        "POSITION" : 13, 
                        "TEXCOORD_0" : 15
                    }, 
                    "indices" : 12, 
                    "material" : 1
                }
            ]
        }
    ], 
    "nodes" : [
        {
            "children" : [
                3, 
                4, 
                5, 
                6, 
                7
            ], 
            "mesh" : 2, 
            "name" : "Body"
        }, 
        {
            "camera" : 0, 
            "name" : "Correction_Camera", 
            "rotation" : [
                -0.7071067690849304, 
                -0.0, 
                0.0, 
                0.7071067690849304
            ]
        }, 
        {
            "children" : [
                1
            ], 
            "name" : "Camera", 
            "rotation" : [
                0.3022444248199463, 
                -0.6949384808540344, 
                0.49733924865722656, 
                0.4223299026489258
            ], 
            "scale" : [
                0.9999999403953552, 
                1.0, 
                1.0
            ], 
            "translation" : [
                -5.254704475402832, 
                2.0416595935821533, 
                -1.8411656618118286
            ]
        }, 
        {
            "mesh" : 1, 
            "name" : "ClearLensCover"
        }, 
        {
            "mesh" : 0, 
            "name" : "Tire", 
            "translation" : [
                -1.9950001239776611, 
                0.3750000298023224, 
                -0.7680000066757202
            ]
        }, 
        {
            "mesh" : 0, 
            "name" : "Tire_2", 
            "rotation" : [
                0.0, 
                1.0, 
                -0.0, 
                -7.549790126404332e-08
            ], 
            "translation" : [
                -1.9950001239776611, 
                0.3750000298023224, 
                0.7680000066757202
            ]
        }, 
        {
            "mesh" : 0, 
            "name" : "Tire_3", 
            "translation" : [
                1.6850000619888306, 
                0.3750000298023224, 
                -0.7680000066757202
            ]
        }, 
        {
            "mesh" : 0, 
            "name" : "Tire_4", 
            "rotation" : [
                0.0, 
                1.0, 
                -0.0, 
                -7.549790126404332e-08
            ], 
            "translation" : [
                1.6850000619888306, 
                0.3750000298023224, 
                0.7680000066757202
            ]
        },
        {
            "name" : "offset",
            "translation" : [3, 0, 0],
            "children" : [0, 2]
        }
    ], 
    "samplers" : [
        {}
    ], 
    "scene" : 0, 
    "scenes" : [
        {
            "name" : "Scene", 
            "nodes" : [
                8
            ]
        }
    ], 
    "textures" : [
        {
            "sampler" : 0, 
            "source" : 0
        }, 
        {
            "sampler" : 0, 
            "source" : 1
        }, 
        {
            "sampler" : 0, 
            "source" : 2
        }, 
        {
            "sampler" : 0, 
            "source" : 3
        }, 
        {
            "sampler" : 0, 
            "source" : 4
        }, 
        {
            "sampler" : 0, 
            "source" : 5
        }, 
        {
            "sampler" : 0, 
            "source" : 6
        }
    ]
}
